<svg xmlns="http://www.w3.org/2000/svg" viewBox="0 0 1471.13 1433.63"><defs><style>.cls-1{fill:#fff49e;}.cls-2{fill:#fff9cc;}</style></defs><title>Asset 4@700px</title><g id="Layer_2" data-name="Layer 2"><g id="objects"><path class="cls-1" d="M829.2,1.63c151.58,13.17,278,133.18,338.27,272.86s65.47,296.54,60.08,448.59c-6.68,188.5-35.72,392.92-170.8,524.57-105,102.35-255.15,141.29-399.11,169.28-105.7,20.56-226.61,33.91-310.72-33.33-68.69-54.9-92.08-148.58-100.34-236.13-27.5-291.3,73.47-558,147.78-833.81C446.08,121.74,618.31-16.7,829.2,1.63Z"/><path class="cls-2" d="M543.41,175c67.64,46.17,128.12,103.12,200.16,142.07S905.23,375,979.07,339.56c60.78-29.15,102.23-90.66,164.76-115.84,79.52-32,174.47,5.89,229.86,71.33s78.06,152.42,89.17,237.43c27.39,209.73-11.28,436.19-146,599.27s-376.76,244-569.05,155.92c-51.17-23.46-97.11-57.31-148.61-80.06-84.55-37.34-179.69-43-267-73.19C176.84,1080.69,52.59,944.85,12.9,785.34c-39-156.67,16.39-382.17,86.39-528.68C183.54,80.35,397.55,75.45,543.41,175Z"/><circle class="cls-1" cx="123.23" cy="1256.57" r="99.25"/><circle class="cls-2" cx="1192.24" cy="102.51" r="73.59"/><circle class="cls-2" cx="1379.29" cy="176.1" r="49.06"/><circle class="cls-2" cx="1284.65" cy="1331.6" r="55.47" transform="translate(-565.32 1298.4) rotate(-45)"/></g></g></svg>