<svg xmlns="http://www.w3.org/2000/svg" viewBox="0 0 1500 1455.83"><defs><style>.cls-1{fill:#d0e2f5;}.cls-2{fill:#dfebf7;}</style></defs><title>Asset 2@700px</title><g id="Layer_2" data-name="Layer 2"><g id="objects"><path class="cls-1" d="M762.67,100.25c56.86,51.14,109.69,109.54,178.93,142s148.45,35.71,222.27,56.12c112.67,31.15,213.2,104.3,277.51,201.92,72.79,110.48,88.4,278.16-14.6,361.2-74.41,60-184.49,55.87-262.24,111.47-96.77,69.21-112.93,204.66-174.76,306.3-68.74,113-202.22,183.31-334.28,176.09s-257.08-91.67-313.09-211.49c-37.51-80.24-45.83-173.39-94-247.74C193,910.35,92,861.54,38.4,774.63-21.94,676.86-5.82,550,49.69,454c68-117.62,192.74-143.11,278.67-236,51.56-55.76,63.28-145.71,127.49-189.45C557.86-41,684.42,29.86,762.67,100.25Z"/><path class="cls-2" d="M1337.63,1154c51.55-91.4,62.13-199.94,63.65-304.86a2082.67,2082.67,0,0,0-42-447.24c-20.17-98.58-52.39-203.16-133.16-263.19C1115,56.1,957.13,89.2,830.26,144.64,572.07,257.44,349.11,449.37,199.15,687.9,117,818.57,57.23,989.26,134,1123.14c49.79,86.81,145.79,135.95,240.35,168.7C630,1380.36,1173,1446,1337.63,1154Z"/><circle class="cls-2" cx="161.83" cy="164.2" r="99.65"/><circle class="cls-2" cx="1351.56" cy="1369.26" r="84.32"/><circle class="cls-2" cx="824.23" cy="56.81" r="56.81" transform="matrix(0.16, -0.99, 0.99, 0.16, 636.13, 861.3)"/></g></g></svg>